PathFileType	4	(X/Y/Z)	RBDS03\RBDS03runT35.trc
DataRate	CameraRate	NumFrames	NumMarkers	Units	OrigDataRate	OrigDataStartFrame	OrigNumFrames
150.000000	150.000000	4	33	mm	150.000000	2812	4500
Frame#	Time	L.ASIS			L.Heel.Bottom			L.Heel.Lateral			L.Heel.Top			L.Iliac.Crest			L.MT1			L.MT5			L.PSIS			L.Shank.Bottom.Lateral			L.Shank.Bottom.Medial			L.Shank.Top.Lateral			L.Shank.Top.Medial			L.Thigh.Bottom.Lateral			L.Thigh.Bottom.Medial			L.Thigh.Top.Lateral			L.Thigh.Top.Medial			R.ASIS			R.ASY			R.Heel.Bottom			R.Heel.Lateral			R.Heel.Top			R.Iliac.Crest			R.MT1			R.MT5			R.PSIS			R.Shank.Bottom.Lateral			R.Shank.Bottom.Medial			R.Shank.Top.Lateral			R.Shank.Top.Medial			R.Thigh.Bottom.Lateral			R.Thigh.Bottom.Medial			R.Thigh.Top.Lateral			R.Thigh.Top.Medial			
		X1	Y1	Z1	X2	Y2	Z2	X3	Y3	Z3	X4	Y4	Z4	X5	Y5	Z5	X6	Y6	Z6	X7	Y7	Z7	X8	Y8	Z8	X9	Y9	Z9	X10	Y10	Z10	X11	Y11	Z11	X12	Y12	Z12	X13	Y13	Z13	X14	Y14	Z14	X15	Y15	Z15	X16	Y16	Z16	X17	Y17	Z17	X18	Y18	Z18	X19	Y19	Z19	X20	Y20	Z20	X21	Y21	Z21	X22	Y22	Z22	X23	Y23	Z23	X24	Y24	Z24	X25	Y25	Z25	X26	Y26	Z26	X27	Y27	Z27	X28	Y28	Z28	X29	Y29	Z29	X30	Y30	Z30	X31	Y31	Z31	X32	Y32	Z32	X33	Y33	Z33	

2813	18.74666666666667	2321.264797103515	981.9987284913885	979.577982944737	1929.16580053244	551.0481721211	1006.093718417608	1939.424209646453	514.970241156484	959.8088845361614	1974.849267702037	528.8325403704174	1012.090291255246	2254.604982711729	1046.350633862419	924.5253926024621	1897.190312168518	326.1690215022016	1042.549874393635	1902.820978740389	361.6599150959433	937.2005708137817	2149.760277947181	1022.557029441684	1024.172473532225	2050.466573049906	468.4160368962312	951.6382652447464	2047.600604452922	511.3334296874298	985.8416479878753	2128.10821145039	484.1041574175823	938.841661608549	2125.850827251451	526.9923706060024	970.9845060566164	2390.693548634961	573.1743182921707	924.1224735645651	2328.088023102255	557.0874651946685	959.0351698460213	2352.361771719389	674.2368118718155	902.5978816452869	2289.519378793929	656.7830637521683	928.9906175465138	2302.165947642452	997.2070281643051	1191.31011562327	48794737450.74043	-1279777202.272796	-4252544115.03974	1983.146088402951	43.96094397970309	1083.659307131946	2019.784291859812	64.32226976637125	1130.411877463077	1997.444916018112	91.36240388972701	1081.589984784582	2237.954775481319	1047.925496960409	1231.333104258949	2196.811974365809	47.99356276136835	1053.457856062202	2171.951320965152	43.12458170614894	1162.5148011496	2142.128080726489	1027.642580651067	1105.328584287096	2097.77801970875	157.793095997602	1140.132138392975	2065.158219019408	185.0131827665162	1110.457788515388	2133.534471848062	230.7708783894034	1165.007819802726	2098.773373661407	255.4067545077093	1132.035081463874	2282.363882788898	576.1448450639646	1212.649541222044	2218.948090909169	565.2673475183024	1178.101414586486	2250.416432352303	680.2380657176074	1235.024939606581	2191.22684914723	669.2810122024176	1201.948440005244	
2814	18.75333333333333	2321.156514413365	985.0711771230779	979.9895384982102	1936.429563121785	537.4473007218395	1008.355055867563	1949.272419778069	502.6471589758818	961.8922090399841	1983.459115809482	518.4666308328814	1014.383065943146	2254.944662250126	1050.440654461886	924.5761912382046	1920.126421644761	310.8524012316498	1043.038179333016	1923.488269195683	347.3338353239233	937.897320257764	2149.461146124878	1025.68823492281	1023.703662778216	2063.620564272186	461.4392005210234	953.3110758944891	2058.92945362228	504.577854140337	987.0139514248468	2140.337096815359	480.557724056544	939.8322225814105	2136.261121161848	523.6564981775085	971.5115465560629	2400.789315440792	581.3155087737825	924.02678716669	2338.457311576523	563.3596200573116	958.5664510343307	2359.404174440135	681.0691244600542	901.9414374298683	2297.113963418472	661.8690252257373	928.349626927279	2301.288297041216	998.4677431256267	1192.204903525997	48855707030.99049	-1281374292.339128	-4257856063.034124	1959.347147321636	46.84154608160483	1083.68407007193	1996.307563234991	66.49921160162322	1130.581184604795	1974.253060751658	94.13105567275397	1081.913702958608	2236.626768998166	1050.158712249164	1231.166026868589	2172.710632163589	47.57900453336149	1053.314642844065	2147.746233467067	42.90621136343845	1162.417724480486	2141.804700915664	1030.153887271161	1105.029343374537	2075.049573685184	159.959923113416	1140.301365359439	2042.917090568783	187.5968835361235	1110.375060790526	2112.071505935537	232.4719381847533	1164.833049200514	2077.609387158082	257.4864532638854	1131.795180918566	2268.545745866498	575.6955820604278	1212.043001564986	2204.455646336802	566.7267064446439	1178.084573807612	2240.06790327029	680.9954378461306	1234.095424400437	2180.295152656914	671.824129278235	1201.416171835247	
2815	18.76	2321.440531276047	988.8951352659042	980.3633304031462	1943.745301923473	522.2901679294239	1011.242947974928	1958.986970745458	489.1304937511912	964.4744400860134	1991.958884489704	506.8183209655855	1016.996081604758	2255.861101511603	1055.192113289374	924.5063952904119	1944.115711400549	295.0020986776954	1043.663443103612	1944.56712393982	332.6058918585026	938.8472785699128	2149.531043577327	1029.472210993038	1023.258718474417	2076.521494757817	454.0249199200896	955.2188593819247	2069.833985398434	497.1745826226206	988.5195410474198	2152.059431758778	476.8713759228081	941.0271347541758	2145.996492810792	519.9690960276309	972.3921134352242	2409.98412031313	590.0904634518305	924.0170797594714	2347.981047994359	570.4555136431237	958.3068706130431	2365.82274700714	688.5371188721491	901.3682749287663	2304.114607113327	667.7853207978926	927.8899706960412	2300.914675049283	1000.403103697214	1193.018600135972	48916727378.22913	-1282972710.561875	-4263172432.699455	1935.847084562095	50.77161295442665	1083.749344750105	1973.17476932206	69.41938713807397	1130.825017956412	1951.580035438951	97.8439554816601	1082.388442931491	2236.176659718791	1053.544360402341	1230.855833380336	2148.620332140717	47.09111051702725	1053.047809924609	2123.487694579119	42.68648280982328	1162.353993716707	2141.942353302808	1033.305590174592	1104.781226501229	2052.593079209762	162.9263649786178	1140.646902097281	2020.917825126707	190.8598399667855	1110.420899137841	2090.68012757687	235.0891440152709	1164.817215744707	2056.46132162619	260.3549749984894	1131.670006469847	2254.564711069761	576.3803865755414	1211.513369390019	2189.876882057778	569.4238956745086	1178.129902315638	2229.74209546901	682.7918223469297	1233.239176823712	2169.451603267126	675.5078461325041	1200.935501831923	
2816	18.76666666666667	2322.069323462758	993.4010354988061	980.6578560493665	1951.363466668689	505.6544434200879	1014.614766269231	1968.798137442558	474.4159646706909	967.4439223496164	2000.557320981738	493.9354707257187	1019.847613552648	2257.160807399279	1060.463886789988	924.3268418633236	1969.166615547919	278.8979473398082	1044.415508681403	1966.144242455169	317.5573753115151	940.0065631712988	2149.946586889888	1033.842257693942	1022.8664049555	2089.264169095697	446.1792071021442	957.308601925682	2080.449832296593	489.0989110171067	990.3388929051409	2163.348137964018	472.9835026832487	942.4136079311901	2155.167155024681	515.8429589577456	973.6327133782295	2418.257204352759	599.3217368664091	924.0700162056963	2356.624405473757	578.2143225337754	958.2368788285683	2371.615805180152	696.4962764134668	900.8628305832301	2310.492917944846	674.3957265770576	927.5814908195809	2301.080309399774	1002.950785824057	1193.68766245937	48977798513.58334	-1284572457.493057	-4268493225.875269	1912.850303972682	55.90226371155516	1083.882331465713	1950.568660131273	73.18269711238062	1131.169055794254	1929.657933255184	102.6081376624002	1083.048818764719	2236.703716448798	1057.942970155884	1230.395773136853	2124.602988374056	46.56142131787072	1052.678821692945	2099.247686393592	42.48264156663901	1162.349573599597	2142.544358981032	1037.032975157973	1104.595753412593	2030.613254969359	166.7507241696962	1141.218802493506	1999.375706263016	194.841554812731	1110.63343319734	2069.539486554389	238.694978462467	1165.002247970769	2035.526234214239	264.0701651170723	1131.679854001232	2240.546003037075	578.2733803585982	1211.053616908424	2175.379103095837	573.4382869699065	1178.176732173608	2219.551670465809	685.6606404250749	1232.446443235043	2158.845956230057	680.373077850091	1200.453920943534	
